<svg xmlns="http://www.w3.org/2000/svg" data-name="Layer 1" viewBox="0 0 32 40" x="0px" y="0px"><defs><style>
      .cls-1 {
        stroke-width: 0px;
      }
    </style></defs><path class="cls-1" d="m26.04,16.95c-.23-.55-.23-1.16,0-1.71l.79-1.92c.23-.55.23-1.16,0-1.71-.23-.55-.66-.98-1.21-1.21l-1.92-.8c-.55-.23-.98-.66-1.21-1.21h0s-.8-1.92-.8-1.92c-.23-.55-.66-.98-1.21-1.21-.55-.23-1.16-.23-1.71,0l-1.92.79c-.55.23-1.16.23-1.71,0l-1.92-.79c-.55-.23-1.16-.23-1.71,0-.55.23-.98.66-1.21,1.21l-.8,1.92c-.23.55-.66.98-1.21,1.21l-1.92.79c-.27.11-.52.28-.73.48-.21.21-.37.45-.48.73-.11.27-.17.56-.17.86s.06.58.17.86l.79,1.92c.23.55.23,1.16,0,1.71l-.79,1.92c-.23.55-.23,1.16,0,1.71.23.55.66.98,1.21,1.21l1.92.8c.55.23.98.66,1.21,1.21l.8,1.92c.23.55.66.98,1.21,1.21.55.23,1.16.23,1.71,0l1.92-.79c.55-.23,1.16-.23,1.71,0l1.92.79c.55.23,1.16.23,1.71,0,.55-.23.98-.66,1.21-1.21l.8-1.92c.23-.55.66-.98,1.21-1.21l1.92-.79c.27-.11.52-.28.73-.48.21-.21.37-.45.48-.73.11-.27.17-.56.17-.86,0-.29-.06-.58-.17-.86l-.79-1.92Zm-5.46-2.88l-4.95,4.95c-.2.2-.46.3-.72.3s-.52-.1-.72-.3l-2.2-2.2c-.4-.4-.4-1.05,0-1.45s1.05-.4,1.45,0l1.48,1.48,4.23-4.23c.4-.4,1.05-.4,1.45,0s.4,1.05,0,1.45Z"/><text x="0" y="47" fill="#000000" font-size="5px" font-weight="bold" font-family="'Helvetica Neue', Helvetica, Arial-Unicode, Arial, Sans-serif">Created by zapesicon</text><text x="0" y="52" fill="#000000" font-size="5px" font-weight="bold" font-family="'Helvetica Neue', Helvetica, Arial-Unicode, Arial, Sans-serif">from the Noun Project</text></svg>